PathFileType	4	(X/Y/Z)	/Users/niels/Desktop/University/Third Semester/Perception and Action/Exam/Gymnastics Motion Tracking/Code for Gym Tracking/Analyzed Data/Webcam_Backflip/id4_3_baseline_Sports2D/id4_3_baseline_Sports2D_px_person00.trc
DataRate	CameraRate	NumFrames	NumMarkers	Units	OrigDataRate	OrigDataStartFrame	OrigNumFrames
29.8125	29.8125	7	22	m	29.8125	80	160
Frame#	Time	Hip			RHip			RKnee			RAnkle			RBigToe			RSmallToe			RHeel			LHip			LKnee			LAnkle			LBigToe			LSmallToe			LHeel			Neck			Head			Nose			RShoulder			RElbow			RWrist			LShoulder			LElbow			LWrist		
		X1	Y1	Z1	X2	Y2	Z2	X3	Y3	Z3	X4	Y4	Z4	X5	Y5	Z5	X6	Y6	Z6	X7	Y7	Z7	X8	Y8	Z8	X9	Y9	Z9	X10	Y10	Z10	X11	Y11	Z11	X12	Y12	Z12	X13	Y13	Z13	X14	Y14	Z14	X15	Y15	Z15	X16	Y16	Z16	X17	Y17	Z17	X18	Y18	Z18	X19	Y19	Z19	X20	Y20	Z20	X21	Y21	Z21	X22	Y22	Z22
80	2.683438155136268	0.8809947696157103	-0.5257246561626766	0.0	0.8835190286159552	-0.5237845499780304	0.0	0.9313470135870049	-0.6316103922491133	0.0	0.8970616739665578	-0.7358934282576812	0.0	0.9313525632047458	-0.7541890209142227	0.0	0.9230199636622695	-0.7572139694522413	0.0	0.8859698169197063	-0.7470679899264313	0.0	0.876018144257337	-0.5213326178822436	0.0	0.9012047430973843	-0.6319568039939252	0.0	0.8325080428705126	-0.7013432148056705	0.0	0.8522508554160846	-0.7380276646755082	0.0	0.8452619926319533	-0.7270132588843932	0.0	0.8164739381454978	-0.7075457942173352	0.0	0.9246396038302028	-0.38316414142065025	0.0	0.9577917343169294	-0.32549258650907315	0.0	0.9634618460782277	-0.3621238964618907	0.0	0.9177659018041499	-0.40148054037384634	0.0	0.9166944707987499	-0.470780450044251	0.0	0.9785190613885583	-0.48931348739790564	0.0	0.9059146381565151	-0.3974950141993494	0.0	0.8989936461719229	-0.4644767147428782	0.0	0.9271382703471667	-0.4747483057180116	0.0
81	2.716981132075471	0.8837779384612819	-0.5155949398714103	0.0	0.886449222370453	-0.5137606059464501	0.0	0.9300414150501708	-0.6234552531615615	0.0	0.9037991009910372	-0.7320061513161374	0.0	0.9396381765912155	-0.7524554632720621	0.0	0.9317617929017676	-0.7555751012560408	0.0	0.8933611372098716	-0.7445792760334934	0.0	0.8787617148293917	-0.511508933065403	0.0	0.9071530111667586	-0.6234547616978635	0.0	0.8504427863230616	-0.7042312329810121	0.0	0.874015923360945	-0.7387208322857168	0.0	0.8659905935639797	-0.728786681706725	0.0	0.835777030316674	-0.7132181654720515	0.0	0.9260195592875243	-0.373753425859615	0.0	0.9599548306295053	-0.3146878752673038	0.0	0.9649574566004364	-0.3521606819176947	0.0	0.9200464964725709	-0.39028028085176664	0.0	0.928516938376755	-0.4580342641704274	0.0	0.9926668287718223	-0.47003719701923474	0.0	0.907068190390994	-0.3863618572251485	0.0	0.9049437528580212	-0.4513402477288482	0.0	0.9316495197192605	-0.45138497876833705	0.0
82	2.7505241090146746	0.8871854213377645	-0.5095475908142065	0.0	0.8896039216974637	-0.5078281095692855	0.0	0.9287514865345203	-0.6189958070735574	0.0	0.9106264362598461	-0.7315897556296401	0.0	0.9474206162175798	-0.7539267875946501	0.0	0.940074204955837	-0.7569096431774118	0.0	0.9009585928805527	-0.7456094448757504	0.0	0.8821011194662677	-0.505816109453935	0.0	0.9120544998950565	-0.6187618611414446	0.0	0.8685191734381614	-0.7096153211079198	0.0	0.8955446684103784	-0.7417166864076177	0.0	0.8867640119054546	-0.7331794716065514	0.0	0.8551377530547267	-0.7212970258403574	0.0	0.9269224893730778	-0.36878094888954865	0.0	0.9617914955847745	-0.307537138228654	0.0	0.9662258357566534	-0.3459437847925985	0.0	0.9217016714725357	-0.38309404197524743	0.0	0.9405434835597616	-0.4477030518629169	0.0	1.006470144931326	-0.45231493526088024	0.0	0.9081117014863663	-0.3793955719570014	0.0	0.9112902083639763	-0.44016745039268107	0.0	0.9362690074248935	-0.431031495545473	0.0
83	2.784067085953878	0.8912414392425019	-0.5079308137776928	0.0	0.8930919677439669	-0.5062028224312101	0.0	0.9280230910180638	-0.6184084468601114	0.0	0.9165993321833572	-0.7341153637722838	0.0	0.9541005990116225	-0.7581392024545133	0.0	0.9472069709417004	-0.7607885062875629	0.0	0.9076304725855746	-0.7495632750461045	0.0	0.8861890128919513	-0.5043789144182614	0.0	0.9163222987426618	-0.6180730321910257	0.0	0.8855785431339185	-0.7170463702026877	0.0	0.9155179126007302	-0.7470937064177026	0.0	0.9067079706853233	-0.740006584134578	0.0	0.8731672942482085	-0.7309359778732899	0.0	0.9273597246012076	-0.3682518582989729	0.0	0.9632141753856263	-0.3043138619599662	0.0	0.9672926678446444	-0.34366632685490367	0.0	0.9227845778086602	-0.3802094665242126	0.0	0.9522962465431362	-0.43947814372413896	0.0	1.0191510117294575	-0.4359478260913251	0.0	0.9091488806209853	-0.3768447959886057	0.0	0.9180824164150144	-0.430279050182481	0.0	0.9417925472127806	-0.4141180455199875	0.0
84	2.817610062893081	0.8957560343349426	-0.5107702049396712	0.0	0.8969353672143383	-0.5088764532076195	0.0	0.9283060513955501	-0.6217358209595688	0.0	0.9210575145049236	-0.7391840818595038	0.0	0.9591529920488097	-0.7646422272803926	0.0	0.9524680000421479	-0.766843365599429	0.0	0.9125899849523647	-0.7558268430031507	0.0	0.8909341733738357	-0.5071020382156812	0.0	0.9203767652902252	-0.6213176452118533	0.0	0.9003634649575067	-0.7263110564032405	0.0	0.9326753156317241	-0.7548008258305464	0.0	0.9248586214065325	-0.749052328587854	0.0	0.8884804468497339	-0.7416796665271522	0.0	0.9274172968379651	-0.37183863592325644	0.0	0.9642055278436952	-0.30518774945249855	0.0	0.9681411652746705	-0.345340349718906	0.0	0.9234718070495549	-0.381676594200025	0.0	0.9632867028287626	-0.43306143137428316	0.0	1.030023679393544	-0.4209235442151583	0.0	0.9102238828848586	-0.3786049605399037	0.0	0.9253147698189306	-0.42094727034404344	0.0	0.9491735542520796	-0.400105059684134	0.0
85	2.8511530398322846	0.90045921434351	-0.5176655483335091	0.0	0.9010548964396352	-0.5155298917797214	0.0	0.929839659019518	-0.6287418568260027	0.0	0.9238263471021869	-0.7465684477981197	0.0	0.9623155799254803	-0.7730025359996485	0.0	0.9554908008909307	-0.7747283443972846	0.0	0.9156297917278616	-0.7639480338120382	0.0	0.8959964548039316	-0.513608297153142	0.0	0.924536782450604	-0.6281316695397849	0.0	0.9118608175321105	-0.73717819623194	0.0	0.9459360817846779	-0.7645301846867657	0.0	0.9398633076779603	-0.7598543574043468	0.0	0.9000995454967937	-0.7532320332883078	0.0	0.9272671894885548	-0.37896291285103667	0.0	0.9648224005723894	-0.3100494560612416	0.0	0.9687172581970062	-0.3506128446529413	0.0	0.9239827445826629	-0.38722301268890924	0.0	0.9730331941426615	-0.42819793719877913	0.0	1.0385288850624588	-0.40743791587109407	0.0	0.9113153143184086	-0.3842528601483074	0.0	0.9327540163776408	-0.4118931513047949	0.0	0.958333754151597	-0.3882800423341853	0.0
86	2.884696016771488	0.9051210709476256	-0.5278545766830559	0.0	0.905296630210739	-0.5255563023628023	0.0	0.9325808287812231	-0.6388362729993565	0.0	0.9251505239613794	-0.7560087448963178	0.0	0.9636587284140279	-0.7827113245080184	0.0	0.9563280724851663	-0.7839864209073737	0.0	0.9170480843791035	-0.7735847897657996	0.0	0.9010129943731902	-0.5232885250809279	0.0	0.9289263847581954	-0.6379261475436006	0.0	0.919621868682546	-0.7492647698296202	0.0	0.9546617925248962	-0.7757041259422618	0.0	0.950319966052987	-0.7717403413276761	0.0	0.9077789938082066	-0.7652670417126453	0.0	0.9271161207902405	-0.3888343563742791	0.0	0.9651750111056513	-0.3183648579134096	0.0	0.9689717846454948	-0.3587216820563307	0.0	0.9244676188055697	-0.39621463610387603	0.0	0.9810599540808783	-0.4247087958935298	0.0	1.0442108748677768	-0.3957497627014038	0.0	0.9124613956737279	-0.3931015403007975	0.0	0.9399864418687484	-0.4037173755096347	0.0	0.9682598540614318	-0.3785285780510433	0.0
